<?xml version="1.0" encoding="utf-8"?>
<!-- Generator: Adobe Illustrator 25.2.1, SVG Export Plug-In . SVG Version: 6.00 Build 0)  -->
<svg version="1.1" id="Layer_1" xmlns="http://www.w3.org/2000/svg" xmlns:xlink="http://www.w3.org/1999/xlink" x="0px" y="0px"
	 viewBox="0 0 1024 1024" style="enable-background:new 0 0 1024 1024;" xml:space="preserve">
<style type="text/css">
	.st0{fill:#C5AFEF;}
	.st1{fill:#A07DE2;}
	.st2{fill:#9A73E5;}
	.st3{fill:#8C56E2;}
</style>
<desc>Created with Fabric.js 5.3.0</desc>
<g>
	<polygon class="st0" points="670.2,25.1 353.8,25.1 97.8,211.1 0,512 97.8,812.9 353.8,998.9 670.2,998.9 926.2,812.9 1024,512 
		926.2,211.1 	"/>
	<polygon class="st1" points="512,112 670.2,25.1 747.1,188.4 926.2,211.1 892.4,388.4 1024,512 892.4,635.6 926.2,812.9 
		747.1,835.6 670.2,998.9 512,912 353.8,998.9 276.9,835.6 97.8,812.9 131.6,635.6 0,512 131.6,388.4 97.8,211.1 276.9,188.4 
		353.8,25.1 	"/>
	<polygon class="st2" points="812,512 892.4,635.6 754.7,688.3 747.1,835.6 604.7,797.3 512,912 419.3,797.3 276.9,835.6 
		269.3,688.3 131.6,635.6 212,512 131.6,388.4 269.3,335.7 276.9,188.4 419.3,226.7 512,112 604.7,226.7 747.1,188.4 754.7,335.7 
		892.4,388.4 	"/>
	<polygon class="st3" points="512,392 604.7,226.7 582.5,414.9 754.7,335.7 626.1,474.9 812,512 626.1,549.1 754.7,688.3 
		582.5,609.1 604.7,797.3 512,632 419.3,797.3 441.5,609.1 269.3,688.3 397.9,549.1 212,512 397.9,474.9 269.3,335.7 441.5,414.9 
		419.3,226.7 	"/>
</g>
</svg>
