<?xml version="1.0" standalone="no"?>
<!DOCTYPE svg PUBLIC "-//W3C//DTD SVG 20010904//EN"
 "http://www.w3.org/TR/2001/REC-SVG-20010904/DTD/svg10.dtd">
<svg version="1.0" xmlns="http://www.w3.org/2000/svg"
 width="700.000000pt" height="700.000000pt" viewBox="0 0 700.000000 700.000000"
 preserveAspectRatio="xMidYMid meet">
<metadata>
Created by potrace 1.14, written by Peter Selinger 2001-2017
</metadata>
<g transform="translate(0.000000,700.000000) scale(0.100000,-0.100000)"
fill="#000000" stroke="none">
<path d="M1974 6507 c-242 -177 -629 -459 -860 -626 -230 -167 -423 -308 -429
-313 -6 -6 13 -7 50 -3 59 6 71 8 150 19 22 3 58 8 80 10 22 3 78 10 125 16
47 6 102 13 123 15 60 8 120 16 147 20 14 2 52 7 85 10 33 3 71 8 85 10 14 2
43 7 65 9 126 15 223 28 240 31 11 2 28 4 38 4 13 1 35 36 78 129 34 70 74
156 91 192 17 36 62 130 99 209 38 79 69 145 69 147 0 1 30 65 66 141 78 162
143 303 141 302 -1 0 -200 -145 -443 -322z"/>
<path d="M2431 6826 c5 -6 126 -74 248 -140 171 -94 715 -393 763 -420 26 -14
52 -26 58 -26 7 0 100 49 208 108 257 142 304 168 382 210 36 19 95 52 132 73
36 22 69 39 71 39 5 0 269 149 276 156 2 2 -479 4 -1069 4 -590 0 -1071 -2
-1069 -4z"/>
<path d="M4590 6817 c0 -3 21 -49 46 -104 145 -310 188 -401 244 -518 34 -71
71 -150 82 -175 11 -25 49 -104 83 -176 l63 -131 99 -13 c54 -7 107 -14 118
-15 11 -2 45 -6 75 -10 30 -3 66 -8 80 -10 14 -2 50 -7 80 -10 30 -3 66 -8 80
-10 14 -2 50 -7 80 -10 86 -11 92 -12 150 -19 30 -4 71 -9 90 -12 19 -2 105
-13 190 -24 85 -11 159 -20 164 -20 5 0 -7 12 -27 28 -40 31 -36 28 -246 180
-86 62 -165 120 -176 128 -76 56 -1258 915 -1266 919 -5 4 -9 4 -9 2z"/>
<path d="M3390 6099 c-58 -72 -115 -143 -127 -157 -12 -15 -103 -128 -203
-252 -100 -124 -185 -228 -189 -233 -4 -4 -20 -3 -37 2 -32 10 -31 9 -429 116
-154 41 -331 89 -393 106 -63 17 -115 29 -117 27 -3 -3 -9 -109 -20 -343 -3
-55 -7 -138 -10 -185 -3 -47 -7 -143 -11 -215 -7 -176 -12 -257 -16 -260 -2
-1 -212 -82 -467 -180 -477 -183 -479 -183 -482 -135 0 8 -2 24 -4 35 -13 62
-57 294 -61 315 -2 14 -11 59 -19 100 -8 41 -17 90 -20 109 -3 19 -7 37 -9 40
-2 3 -7 31 -11 61 -4 30 -9 58 -11 61 -2 3 -6 21 -9 40 -3 19 -10 59 -16 89
-6 30 -12 66 -15 80 -4 20 -26 132 -39 200 -2 8 -4 20 -5 25 -2 12 -4 5 -156
-465 -64 -195 -128 -393 -144 -440 -15 -47 -46 -141 -68 -210 -175 -543 -275
-849 -284 -872 -20 -53 -2 -45 83 35 47 45 141 134 210 199 134 125 138 129
345 324 198 186 238 223 244 223 3 0 52 -73 110 -162 57 -89 179 -278 271
-419 l167 -257 -69 -108 c-78 -122 -79 -125 -114 -173 -13 -19 -29 -44 -35
-55 -5 -11 -36 -59 -67 -107 -32 -48 -103 -157 -158 -242 -55 -86 -102 -155
-105 -155 -6 0 -56 45 -239 218 -79 75 -159 150 -176 166 -18 17 -92 86 -165
155 -74 69 -143 134 -155 145 -12 11 -54 52 -94 90 -40 39 -70 63 -67 55 3 -8
28 -87 56 -175 28 -88 55 -169 59 -180 5 -11 13 -36 19 -55 9 -31 62 -194 299
-925 54 -165 159 -491 218 -670 12 -37 14 -38 19 -15 3 14 8 36 10 50 4 23 64
346 71 380 2 8 18 89 35 180 18 91 34 174 36 185 2 11 8 45 14 75 6 30 12 66
15 80 3 14 13 68 22 120 9 52 20 99 24 104 5 5 41 -4 86 -22 43 -17 186 -72
318 -122 132 -50 249 -95 260 -100 11 -5 77 -30 148 -56 105 -39 127 -51 128
-68 1 -12 2 -39 4 -61 1 -22 5 -105 9 -185 4 -80 9 -174 11 -210 2 -36 7 -112
9 -170 3 -58 9 -161 12 -230 3 -69 7 -126 9 -128 3 -3 82 17 325 84 47 12 204
55 350 94 146 39 272 73 280 75 17 5 14 9 295 -340 93 -115 172 -212 175 -215
3 -3 17 -21 32 -42 15 -20 33 -42 40 -50 7 -7 33 -39 57 -70 24 -32 45 -58 48
-58 6 0 25 23 281 339 123 152 231 285 240 296 10 11 39 48 66 83 33 43 53 61
64 58 10 -3 78 -21 152 -41 74 -20 158 -42 185 -50 193 -55 618 -165 622 -162
1 1 4 61 8 132 3 72 8 164 10 205 2 41 6 131 10 200 3 69 8 161 11 205 3 44 7
120 9 168 2 49 5 90 7 91 2 2 212 83 467 180 329 126 466 175 471 166 4 -6 15
-57 26 -113 21 -122 19 -110 33 -177 6 -30 13 -70 16 -87 3 -18 14 -79 26
-135 11 -57 24 -125 29 -153 8 -47 24 -128 70 -367 33 -175 33 -176 44 -131 6
25 123 386 311 963 246 752 342 1050 338 1050 -3 0 -33 -27 -67 -59 -33 -33
-70 -68 -82 -78 -12 -10 -84 -77 -160 -149 -76 -73 -155 -146 -174 -164 -19
-18 -91 -86 -160 -150 -222 -209 -245 -230 -250 -230 -3 0 -23 28 -44 63 -22
34 -77 118 -121 187 -45 69 -150 229 -233 357 l-150 232 51 81 c189 294 493
760 497 760 7 0 34 -26 465 -431 38 -37 110 -104 159 -150 50 -46 128 -120
174 -164 46 -44 87 -81 92 -83 5 -2 -2 27 -15 65 -12 37 -42 127 -64 198 -23
72 -96 297 -163 500 -66 204 -155 478 -198 610 -43 132 -110 337 -149 455 -38
118 -70 211 -71 205 -1 -5 -3 -17 -5 -25 -1 -8 -7 -40 -14 -70 -6 -30 -13 -66
-15 -80 -2 -14 -14 -72 -25 -130 -11 -58 -23 -121 -26 -140 -3 -19 -8 -42 -10
-50 -2 -8 -7 -29 -9 -46 -3 -17 -13 -66 -21 -110 -9 -43 -18 -92 -21 -109 -3
-16 -9 -50 -14 -75 -5 -25 -12 -58 -15 -75 -16 -98 -53 -276 -58 -281 -5 -5
-97 26 -192 66 -11 5 -175 68 -365 139 -190 72 -352 136 -362 141 -13 7 -33
-10 -105 -87 -48 -53 -95 -104 -103 -113 -14 -16 -165 -179 -243 -262 -17 -19
-59 -64 -91 -99 -32 -35 -107 -116 -166 -179 -58 -63 -125 -136 -148 -161
l-41 -45 212 -42 c117 -24 221 -44 232 -46 11 -2 31 -7 45 -10 14 -3 37 -8 53
-11 15 -3 39 -7 55 -10 15 -3 38 -8 52 -11 14 -3 36 -8 50 -10 14 -3 126 -25
250 -50 124 -25 241 -47 260 -50 35 -6 62 -20 38 -21 -7 0 -164 -30 -348 -68
-184 -37 -344 -69 -355 -71 -11 -2 -87 -17 -170 -33 -82 -17 -163 -32 -180
-35 -16 -3 -67 -14 -112 -23 l-82 -18 52 -56 c68 -73 236 -256 272 -294 15
-16 68 -74 119 -129 50 -54 102 -110 115 -125 13 -14 72 -78 131 -141 135
-146 183 -200 178 -200 -2 0 -31 13 -64 29 -32 15 -81 39 -109 51 -65 29 -425
195 -490 225 -47 22 -141 65 -265 122 -30 14 -93 43 -139 64 -46 22 -87 39
-91 39 -7 0 -7 -12 4 -100 7 -51 14 -113 22 -180 3 -25 9 -83 15 -130 5 -47
12 -105 15 -130 3 -25 7 -58 9 -75 2 -16 6 -57 10 -90 4 -33 8 -71 10 -85 2
-14 7 -47 10 -75 3 -27 8 -63 10 -80 2 -16 7 -61 10 -100 4 -38 9 -78 11 -89
8 -45 15 -126 11 -126 -2 0 -143 248 -313 550 -170 303 -311 550 -314 550 -3
0 -114 -195 -248 -432 -133 -238 -249 -444 -258 -458 -8 -14 -39 -70 -70 -125
l-55 -100 6 60 c6 60 11 110 20 175 7 50 13 106 20 175 3 33 8 71 10 85 2 14
9 70 15 125 6 55 13 111 15 125 2 14 7 54 10 90 4 36 9 73 10 82 2 9 7 48 10
85 4 37 9 76 11 86 2 10 6 48 9 85 3 37 8 75 11 85 7 24 -2 22 -102 -24 -174
-81 -212 -98 -464 -214 -140 -65 -280 -129 -310 -142 -30 -14 -106 -49 -169
-79 -63 -30 -115 -53 -117 -51 -3 2 9 15 182 202 51 55 102 110 112 123 11 13
67 73 125 135 58 62 114 122 124 134 10 11 64 70 118 129 55 59 109 117 120
129 11 12 35 37 53 57 l33 35 -163 32 c-90 18 -174 35 -188 37 -14 3 -115 23
-225 46 -110 22 -211 42 -225 45 -14 3 -90 18 -170 33 -80 16 -156 31 -170 34
-14 2 -44 9 -67 14 -23 5 -45 8 -48 6 -3 -2 -2 0 2 4 6 7 233 55 353 76 14 2
104 20 200 40 96 19 189 38 205 40 36 6 477 96 487 99 4 1 -16 27 -45 58 -179
192 -254 274 -269 292 -10 11 -62 68 -117 126 -54 58 -109 118 -122 132 -13
15 -67 73 -120 130 -158 171 -187 204 -185 206 1 2 25 -8 52 -21 42 -20 141
-66 464 -214 36 -16 101 -46 145 -67 44 -20 94 -43 110 -50 17 -7 108 -50 204
-94 95 -45 178 -81 183 -81 5 0 7 8 4 18 -2 9 -8 46 -11 82 -4 36 -8 76 -10
90 -6 52 -15 127 -20 175 -12 99 -15 128 -40 325 -8 69 -17 150 -20 181 -3 31
-7 64 -9 75 -2 10 -7 48 -10 84 -4 36 -9 76 -11 90 -2 14 -7 54 -10 90 l-6 65
104 -185 c57 -102 115 -205 129 -230 33 -59 207 -369 247 -440 17 -30 57 -101
88 -157 31 -57 59 -103 62 -103 6 0 22 26 71 115 15 28 89 160 165 295 154
274 140 249 278 495 55 99 105 185 110 190 8 9 3 -66 -8 -125 -2 -9 -6 -45
-10 -80 -3 -36 -8 -83 -10 -105 -2 -22 -7 -56 -9 -75 -6 -37 -11 -76 -21 -175
-12 -107 -14 -118 -30 -250 -23 -187 -27 -222 -40 -350 -4 -33 -9 -68 -11 -77
-3 -10 -2 -18 2 -18 8 0 203 87 353 157 53 25 204 95 336 155 274 125 419 192
455 211 23 12 25 19 24 72 -1 58 -9 231 -19 420 -3 50 -7 133 -10 185 -13 262
-17 335 -20 338 -2 2 -30 -4 -62 -13 -32 -9 -65 -19 -73 -20 -8 -2 -175 -47
-370 -100 -195 -53 -379 -101 -407 -107 -29 -7 -53 -16 -53 -21 0 -5 -19 16
-42 46 -60 78 -529 659 -546 676 -7 8 -20 24 -29 37 -8 13 -18 24 -22 24 -3
-1 -53 -59 -111 -131z"/>
<path d="M706 1418 c22 -18 274 -202 429 -314 11 -8 106 -76 210 -152 518
-377 782 -569 805 -584 14 -10 77 -56 140 -102 63 -46 116 -83 118 -81 1 1
-16 42 -39 91 -63 136 -180 383 -253 538 -36 76 -66 139 -66 141 0 1 -36 77
-80 169 -56 117 -85 166 -97 167 -10 1 -27 3 -38 4 -11 2 -45 6 -75 9 -30 4
-66 9 -80 11 -70 10 -109 15 -152 20 -26 3 -62 7 -80 10 -18 3 -125 16 -238
30 -113 14 -275 34 -360 45 -85 11 -159 20 -164 20 -5 0 4 -10 20 -22z"/>
<path d="M6225 1429 c-33 -4 -86 -10 -117 -14 -31 -3 -65 -8 -76 -10 -10 -2
-43 -6 -73 -10 -30 -3 -65 -8 -79 -10 -14 -2 -54 -6 -90 -10 -36 -3 -72 -8
-80 -10 -8 -2 -40 -7 -70 -10 -30 -3 -66 -8 -80 -10 -22 -3 -57 -8 -165 -21
-16 -2 -88 -11 -159 -20 l-129 -17 -57 -121 c-93 -196 -125 -266 -339 -720
-67 -142 -120 -260 -119 -262 3 -2 1636 1180 1708 1237 28 22 27 22 -75 8z"/>
<path d="M3455 742 c-16 -10 -66 -38 -110 -62 -44 -24 -160 -88 -258 -142 -98
-54 -179 -98 -181 -98 -3 0 -190 -103 -236 -130 -8 -5 -67 -37 -130 -72 l-115
-63 537 -3 c296 -1 780 -1 1075 0 l538 3 -80 44 c-44 24 -100 55 -125 69 -88
48 -756 415 -808 443 -62 34 -68 35 -107 11z"/>
</g>
</svg>
